<?xml version="1.0" standalone="no"?>
<!DOCTYPE svg PUBLIC "-//W3C//DTD SVG 1.1//EN" "http://www.w3.org/Graphics/SVG/1.1/DTD/svg11.dtd">

<svg width="135" height="50" viewBox="0 0 135 50" preserveAspectRatio="none" 
  xmlns="http://www.w3.org/2000/svg"
  xmlns:xlink="http://www.w3.org/1999/xlink">


<polyline points="0.0, 24.75878571027937 0.8083832335329342, 22.780667673591996 1.6167664670658684, 19.199296808087464 2.4251497005988023, 19.941106559326624 3.2335329341317367, 20.53006356977565 4.041916167664671, 17.332125602095196 4.850299401197605, 17.728036602177593 5.658682634730539, 19.655628846997665 6.467065868263473, 26.80551498028041 7.275449101796408, 26.69080239355487 8.083832335329342, 29.78853892677595 8.892215568862277, 34.09852711649603 9.70059880239521, 34.40398041177186 10.508982035928144, 33.4388378225138 11.317365269461078, 31.04136846339371 12.125748502994012, 34.21600914994964 12.934131736526947, 33.90974634193028 13.74251497005988, 35.47410795742566 14.550898203592816, 34.573038593710464 15.359281437125748, 30.276372972897164 16.167664670658684, 43.35288956691555 16.976047904191617, 39.43211480346262 17.784431137724553, 31.438318484877538 18.592814371257486, 26.904871737238057 19.40119760479042, 25.967812204828316 20.20958083832335, 30.267967929796473 21.017964071856287, 28.205589963136152 21.82634730538922, 29.299841415313537 22.634730538922156, 29.434783194984526 23.443113772455092, 29.996709995355257 24.251497005988025, 29.120048930967346 25.059880239520957, 26.231018077357714 25.868263473053894, 21.75377259389245 26.676646706586826, 23.364294412135735 27.48502994011976, 23.800604078318948 28.29341317365269, 24.910994025846843 29.10179640718563, 23.95680741749934 29.910179640718564, 24.557615707365677 30.718562874251496, 25.433876762052765 31.526946107784433, 27.679817916113304 32.33532934131737, 27.0547467912314 33.1437125748503, 30.737703815099195 33.952095808383234, 28.269365645880285 34.76047904191616, 29.907173431162647 35.568862275449106, 33.08787385357774 36.377245508982035, 29.858256583839744 37.18562874251497, 30.601702527476064 37.9940119760479, 26.476102358822683 38.80239520958084, 26.24164499804131 39.61077844311377, 27.63801092699935 40.4191616766467, 26.268272644851066 41.227544910179645, 23.807265071738655 42.035928143712574, 24.062172563183122 42.84431137724551, 25.12860519625476 43.65269461077844, 25.422632025219205 44.461077844311376, 25.479199130180284 45.26946107784431, 25.720999399210154 46.07784431137725, 26.805404138265548 46.886227544910184, 26.952830380894287 47.69461077844311, 29.851062202187446 48.50299401197605, 28.609635594176098 49.31137724550898, 29.105661523096842 50.119760479041915, 25.91867824916511 50.928143712574844, 24.248219573712852 51.73652694610779, 25.796187790263147 52.54491017964072, 27.61144523577518 53.35329341317365, 24.3105316861687 54.16167664670659, 22.23308806789955 54.97005988023952, 10.933015419117984 55.778443113772454, 10.760272475450282 56.58682634730538, 9.771344922644975 57.395209580838326, 6.741750587114521 58.20359281437126, 7.850937391577127 59.01197604790419, 5.726225811569105 59.82035928143713, 0.0 60.62874251497006, 1.1332460286611563 61.43712574850299, 1.1647690636406676 62.24550898203593, 2.534170566678591 63.053892215568865, 3.673085456842229 63.862275449101794, 4.67348477532859 64.67065868263474, 3.509379076989136 65.47904191616766, 4.882695122713398 66.2874251497006, 4.102093566524302 67.09580838323353, 5.615262329270739 67.90419161676647, 6.636219401916687 68.7125748502994, 7.2905152761892165 69.52095808383233, 7.404275242502516 70.32934131736526, 8.45624827807183 71.13772455089821, 9.126581090965507 71.94610778443113, 7.868030091941115 72.75449101796407, 8.47147719696771 73.562874251497, 8.033447609747304 74.37125748502994, 8.341640813880543 75.17964071856287, 6.697738116598054 75.9880239520958, 11.278463968914489 76.79640718562875, 13.449416261992205 77.60479041916167, 12.240841708831486 78.41317365269461, 10.708094401735387 79.22155688622755, 9.520337403317566 80.02994011976048, 9.6200195664019 80.8383233532934, 9.773819833471647 81.64670658682634, 8.033229567046876 82.45508982035929, 6.076510593099569 83.26347305389221, 7.755509311005852 84.07185628742515, 7.60119345478913 84.88023952095809, 8.774139464298951 85.68862275449102, 9.07169482784764 86.49700598802396, 9.108991506858171 87.30538922155688, 8.203355634241188 88.11377245508983, 9.389432847007747 88.92215568862275, 10.992218052706479 89.73053892215569, 12.266773223906458 90.53892215568862, 12.199716118274399 91.34730538922156, 10.214777652042212 92.1556886227545, 11.97736075610807 92.96407185628742, 11.637531921789918 93.77245508982037, 11.383290220218264 94.58083832335329, 15.533161054573819 95.38922155688623, 18.040395386044025 96.19760479041915, 18.857268853599987 97.0059880239521, 21.38361715726527 97.81437125748504, 23.87587990721744 98.62275449101796, 28.698136667972058 99.43113772455091, 35.59385982530793 100.23952095808383, 38.438861379695624 101.04790419161677, 40.067198016056494 101.85628742514969, 47.96807964162096 102.66467065868264, 50.0 103.47305389221557, 48.78646553711245 104.2814371257485, 45.40937391350383 105.08982035928145, 44.15517377167614 105.89820359281437, 43.98903201848109 106.7065868263473, 39.760212373819755 107.51497005988023, 35.48689341669093 108.32335329341318, 41.469173236193654 109.13173652694611, 41.35852394882719 109.94011976047904, 40.88684451045962 110.74850299401199, 41.66483016030354 111.55688622754491, 43.754707490143055 112.36526946107784, 44.80439650327782 113.17365269461077, 43.364231995425186 113.98203592814372, 45.987779728940026 114.79041916167665, 44.12636858329389 115.59880239520957, 43.53719278545968 116.40718562874252, 45.812594811705075 117.21556886227545, 48.086817756754606 118.02395209580838, 44.95793782983718 118.83233532934132, 44.45140907353738 119.64071856287426, 41.58810944083668 120.44910179640719, 46.47407908252719 121.25748502994011, 48.31484947069302 122.06586826347306, 45.08678752624879 122.87425149700599, 44.852869581222585 123.68263473053892, 43.78063361706732 124.49101796407186, 41.22844686948541 125.2994011976048, 42.14852873850617 126.10778443113773, 39.1697111228504 126.91616766467065, 39.92438374311412 127.72455089820359, 38.857381277544334 128.5329341317365, 37.208420197668566 129.34131736526948, 37.89404450645141 130.1497005988024, 34.67687266574845 130.95808383233532, 30.243056518908496 131.76646706586826, 25.081586576148162 132.5748502994012, 19.715141728324532 133.38323353293413, 20.934858586534215 134.19161676646706, 27.56171812563212" fill="none" stroke="#ff3a33" stroke-width="1.25"/>

</svg>