<?xml version="1.0" standalone="no"?>
<!DOCTYPE svg PUBLIC "-//W3C//DTD SVG 1.1//EN" "http://www.w3.org/Graphics/SVG/1.1/DTD/svg11.dtd">

<svg width="135" height="50" viewBox="0 0 135 50" preserveAspectRatio="none" 
  xmlns="http://www.w3.org/2000/svg"
  xmlns:xlink="http://www.w3.org/1999/xlink">


<polyline points="0.0, 33.718128167090924 0.8035714285714285, 31.990624723920863 1.607142857142857, 31.797674247232383 2.4107142857142856, 33.84539035810438 3.214285714285714, 33.73359869076686 4.017857142857142, 31.79354474867549 4.821428571428571, 34.9499730850133 5.625, 33.63904847653764 6.428571428571428, 39.65488298382927 7.232142857142857, 40.488069721761086 8.035714285714285, 42.89690160871851 8.839285714285715, 46.47977827075167 9.642857142857142, 46.752323465229665 10.446428571428571, 44.883732611097784 11.25, 42.86065170433356 12.053571428571429, 43.315529650427905 12.857142857142856, 43.82937074845572 13.660714285714286, 43.02568469630189 14.464285714285714, 41.37461075500664 15.267857142857142, 40.02629950370773 16.07142857142857, 50.0 16.875, 49.32319978610659 17.67857142857143, 40.46275580285282 18.482142857142858, 34.883579633973376 19.285714285714285, 32.6677474798213 20.089285714285715, 34.334795082913 20.892857142857142, 34.22245359676806 21.696428571428573, 34.43386544713468 22.5, 36.751265584645616 23.303571428571427, 35.19847045013074 24.107142857142858, 34.9053075303085 24.91071428571429, 33.84005795973244 25.71428571428571, 30.92156318271674 26.517857142857142, 28.26463373992124 27.321428571428573, 29.188161913657908 28.125, 30.89022026046006 28.928571428571427, 31.363286137295304 29.732142857142858, 27.936673684786484 30.535714285714285, 28.2953969685867 31.339285714285715, 30.072082531614136 32.14285714285714, 29.462306703352354 32.94642857142857, 29.780573969646195 33.75, 33.506063205111495 34.55357142857142, 30.593195605704192 35.35714285714286, 30.99800746898353 36.160714285714285, 31.979475385853284 36.964285714285715, 29.49633992657603 37.767857142857146, 26.954543520169448 38.57142857142857, 26.888053687724234 39.375, 26.691409588106087 40.17857142857143, 30.443046668868863 40.982142857142854, 29.749927491543787 41.785714285714285, 29.05125358301418 42.589285714285715, 28.85618238837867 43.392857142857146, 30.18945258954937 44.19642857142857, 28.844411839205584 45.0, 29.886834674688362 45.80357142857143, 30.94746342489454 46.607142857142854, 31.360172290207387 47.410714285714285, 31.701954034684544 48.214285714285715, 31.70049644756494 49.01785714285714, 30.32045291126081 49.82142857142858, 30.793907407322287 50.625, 29.480092728250813 51.42857142857142, 28.266410322132334 52.23214285714286, 32.01116309643077 53.035714285714285, 31.005957021781622 53.839285714285715, 29.809205111002147 54.642857142857146, 26.095204679788846 55.44642857142857, 15.368583597917269 56.25, 14.981929434168404 57.05357142857143, 15.30469632899697 57.857142857142854, 13.377564080095636 58.660714285714285, 14.595691041324596 59.464285714285715, 12.618289274116613 60.267857142857146, 7.508050931852781 61.07142857142857, 7.6674467406182 61.875, 5.73177772433635 62.67857142857143, 6.010977563326939 63.482142857142854, 7.046674556171036 64.28571428571428, 7.622048849014533 65.08928571428572, 8.413176279513818 65.89285714285714, 9.299905958978094 66.69642857142857, 11.543136388301733 67.5, 11.305961469604519 68.30357142857143, 10.892699081568336 69.10714285714285, 11.850212125465346 69.91071428571429, 11.422516658652492 70.71428571428572, 13.243437159956745 71.51785714285714, 13.4793545303984 72.32142857142857, 13.653792022406657 73.125, 13.495284287122832 73.92857142857143, 11.867185237729528 74.73214285714286, 12.582971905418042 75.53571428571429, 12.390942887655676 76.33928571428571, 13.042228519604807 77.14285714285714, 13.613555887415945 77.94642857142857, 13.211267127198752 78.75, 11.785925351023781 79.55357142857143, 10.946480112470823 80.35714285714286, 10.949486848328506 81.16071428571428, 11.423700970628465 81.96428571428571, 10.367182939489195 82.76785714285715, 9.961032608531413 83.57142857142857, 9.488746623434304 84.375, 9.589531624585549 85.17857142857143, 9.913665842658284 85.98214285714285, 10.126325570546003 86.78571428571429, 10.123310471916176 87.58928571428572, 9.635507861679317 88.39285714285714, 10.890690282590434 89.19642857142857, 11.741446067941366 90.0, 11.575052736975277 90.80357142857143, 11.81499598321358 91.60714285714286, 10.798375743983113 92.41071428571429, 11.358770044886109 93.21428571428571, 9.19085271788063 94.01785714285714, 9.292672196151601 94.82142857142857, 12.79999191350471 95.625, 13.264668313412372 96.42857142857143, 10.245311157375776 97.23214285714286, 12.16467196332902 98.03571428571428, 15.09772930424167 98.83928571428571, 17.011686837185497 99.64285714285715, 21.412370631567274 100.44642857142857, 21.2833851310654 101.25, 23.848397384907358 102.05357142857143, 26.16060340177306 102.85714285714285, 26.813597144369773 103.66071428571429, 24.878956089728455 104.46428571428572, 27.303856592186303 105.26785714285714, 24.659937733200117 106.07142857142857, 23.92950868392501 106.875, 21.593887051518333 107.67857142857143, 21.09893263808319 108.48214285714286, 24.586921893126096 109.28571428571429, 22.80613624607231 110.08928571428571, 23.138352253446417 110.89285714285714, 25.62885520281614 111.69642857142857, 26.80074530800364 112.5, 31.134317586548192 113.30357142857143, 31.200962144543627 114.10714285714286, 31.628694671613044 114.91071428571428, 28.661452227860096 115.71428571428571, 31.592347055512075 116.51785714285715, 31.343782943962367 117.32142857142857, 31.399278797458624 118.125, 30.44662754021822 118.92857142857143, 28.099727234559822 119.73214285714285, 27.958868275796423 120.53571428571429, 32.49452711033401 121.33928571428572, 31.821916317054328 122.14285714285714, 29.39516387475968 122.94642857142857, 29.102599192711757 123.75, 27.833671909731837 124.55357142857143, 25.318696141595737 125.35714285714286, 24.971506022879147 126.16071428571429, 22.90418311857368 126.96428571428571, 23.5414160413166 127.76785714285714, 20.05178163114354 128.57142857142856, 20.41402164102923 129.375, 18.791347749878568 130.17857142857144, 18.263695005956155 130.98214285714286, 19.398574509452757 131.78571428571428, 0.0 132.5892857142857, 0.27769488036006407 133.39285714285714, 2.451910583162276 134.19642857142858, 8.406082219068544" fill="none" stroke="#32ca5b" stroke-width="1.25"/>

</svg>